
Genre:Action | Comedy | Horror
Language:English
IMDb:http://www.imdb.com/title/tt1270835/
Source:BluRay.X264-AMIABLE
Subtitles:Romana


Format : MPEG-4
Format profile : Base Media
Codec ID : isom
File size : 1.61 GiB
Duration : 1h 25mn
Overall bit rate : 2 704 Kbps
Movie name : Hatchet.II.2010.LIMITED.720p.BRRip.x264.Feel-Free


Video
Format settings, CABAC : Yes
Format settings, ReFrames : 4 frames
Codec ID : avc1
Codec ID/Info : Advanced Video Coding
Duration : 1h 25mn
Bit rate mode : Variable
Bit rate : 2 400 Kbps
Width : 1 280 pixels
Height : 720 pixels
Display aspect ratio : 16:9
Frame rate mode : Constant
Frame rate : 23.976 fps
Color space : YUV
Chroma subsampling : 4:2:0
Bit depth : 8 bits
Scan type : Progressive
Bits/(Pixel*Frame) : 0.109
Stream size : 1.38 GiB (86%)
Writing library : x264

Audio
ID : 2
Format : AAC
Format/Info : Advanced Audio Codec
Format version : Version 4
Format profile : LC
Codec ID : 40
Duration : 1h 25mn
Bit rate mode : Variable
Bit rate : 384 Kbps
Channel(s) : 6 channels
Channel positions : Front: L C R, Side: L R, LFE
Sampling rate : 48.0 KHz
Stream size : 234 MiB (14%)



Plot:
Marybeth escapes the clutches of the deformed, swamp-dwelling iconic killer Victor Crowley. After learning the truth about her family's connection to the hatchet-wielding madman
 
http://rapidhdd.com/images/710396vlcsnap-00001.png
 
http://www.rapidhdd.com/images/94289vlcsnap-00002.png
 
http://www.rapidhdd.com/images/441153vlcsnap-00003.png
 
http://www.rapidhdd.com/images/897337vlcsnap-00005.png
 
http://www.rapidhdd.com/images/430247vlcsnap-00006.png